<svg xmlns="http://www.w3.org/2000/svg" width="1200" height="520" viewBox="0 0 1200 520">
  <rect width="1200" height="520" fill="#7ff5f0"/>
  
  <g transform="translate(100 70)">
    <ellipse cx="180" cy="210" rx="150" ry="118" fill="#c97819" stroke="#241032" stroke-width="18"/>
    <rect x="79" y="53" width="206" height="258" rx="28" fill="#ffc432" stroke="#241032" stroke-width="18"/>
    <path d="M88 119 L276 119 M88 245 L276 245" stroke="#ffe47a" stroke-width="20" stroke-linecap="round"/>
    <path d="M182 115 C244 115, 245 248, 182 248 C119 248, 120 115, 182 115 Z" fill="#f48a21" stroke="#241032" stroke-width="12"/>
    <circle cx="155" cy="174" r="15" fill="#ffc432"/><circle cx="209" cy="174" r="15" fill="#ffc432"/>
    <rect x="63" y="266" width="232" height="74" rx="26" fill="#e79a20" stroke="#241032" stroke-width="14"/>
  </g>
  <g transform="translate(690 56)">
    <path d="M210 20 L365 160 L306 374 L115 374 L56 160 Z" fill="#8b3fe1" stroke="#241032" stroke-width="20" stroke-linejoin="round"/>
    <path d="M210 20 L210 374 L56 160 Z" fill="#f238df" opacity="0.8" stroke="#241032" stroke-width="10" stroke-linejoin="round"/>
    <path d="M210 20 L365 160 L210 374 Z" fill="#5b27a3" opacity="0.9" stroke="#241032" stroke-width="10" stroke-linejoin="round"/>
    <path d="M129 153 L210 65 L292 153 L251 323 L168 323 Z" fill="#ff86f2" opacity="0.55"/>
    <ellipse cx="210" cy="207" rx="245" ry="72" fill="none" stroke="#f238df" stroke-width="18"/>
    <circle cx="451" cy="207" r="18" fill="#ff86f2" stroke="#241032" stroke-width="8"/>
    <circle cx="-31" cy="207" r="18" fill="#ff86f2" stroke="#241032" stroke-width="8"/>
    <polygon points="411,82 459,117 407,149" fill="#8b3fe1" stroke="#241032" stroke-width="10" stroke-linejoin="round"/>
    <polygon points="28,302 74,337 21,365" fill="#8b3fe1" stroke="#241032" stroke-width="10" stroke-linejoin="round"/>
  </g>

</svg>
