<svg xmlns="http://www.w3.org/2000/svg" width="1000" height="580" viewBox="0 0 1000 580">
  <defs>
    <radialGradient id="magenta" cx="78%" cy="66%" r="42%">
      <stop offset="0" stop-color="#d944ff"/>
      <stop offset="0.38" stop-color="#6c28c9"/>
      <stop offset="1" stop-color="#101533"/>
    </radialGradient>
    <radialGradient id="teal" cx="24%" cy="32%" r="52%">
      <stop offset="0" stop-color="#25d5e0"/>
      <stop offset="0.42" stop-color="#244ea6"/>
      <stop offset="1" stop-color="#0b1027"/>
    </radialGradient>
    <g id="star"><path d="M0 -7 L2 -2 L7 0 L2 2 L0 7 L-2 2 L-7 0 L-2 -2 Z"/></g>
  </defs>
  <rect width="1000" height="580" fill="#080c20"/>
  <rect width="1000" height="580" fill="url(#teal)" opacity="0.6"/>
  <rect width="1000" height="580" fill="url(#magenta)" opacity="0.68"/>
  <path d="M420 20 C560 110, 610 250, 790 240 C900 234, 980 300, 1000 390 L1000 580 L610 580 C560 460, 440 420, 320 330 C210 248, 260 92, 420 20 Z" fill="#b83cff" opacity="0.28"/>
  <path d="M0 430 C130 350, 280 410, 430 360 C570 313, 680 365, 840 305 C930 272, 980 280, 1000 300 L1000 580 L0 580 Z" fill="#14cbd4" opacity="0.16"/>
  <g fill="#f8f0ff" opacity="0.85">
    <use href="#star" x="80" y="90"/><use href="#star" x="210" y="160"/><use href="#star" x="400" y="80"/>
    <use href="#star" x="570" y="210"/><use href="#star" x="690" y="120"/><use href="#star" x="870" y="180"/>
    <use href="#star" x="120" y="430"/><use href="#star" x="760" y="420"/><use href="#star" x="940" y="500"/>
  </g>
  <image href="title-key-art-v3-transparent.png" x="0" y="0" width="1000" height="580" preserveAspectRatio="none"/>
</svg>
